<svg width="512" height="512" version="1.1" xmlns="http://www.w3.org/2000/svg" desc="Created with imagetracer.js version 1.2.6" ><path fill="rgb(0,0,0)" stroke="rgb(0,0,0)" stroke-width="1" opacity="0" d="M 0 0 L 512 0 L 512 333.5 L 511 333.5 L 506.5 328 Q 503.3 325.7 496.5 327 L 388.5 363 L 294 79.5 L 288.5 73 L 283.5 71 L 276.5 73 L 273 76.5 Q 270.2 79.2 271 85.5 L 370 382.5 L 375.5 388 L 384.5 389 L 502.5 350 L 511 343.5 L 511.5 342 L 512 512 L 0 512 L 0 312.5 L 1 312.5 L 1 320.5 L 2 321.5 L 5 345.5 L 14 384.5 L 15.5 386 L 36.5 386 Q 37.8 385.8 37 379.5 Q 41.9 356.9 57.5 345 Q 70.5 333 94.5 332 L 95.5 333 L 103.5 333 L 118.5 338 L 133 348 L 141 358.5 L 146 368.5 L 149 378.5 L 149 386 L 218.5 386 Q 219.8 385.8 219 379.5 L 221 369.5 L 226 356.5 L 240.5 339 Q 250 331 263.5 327 L 274.5 325 L 284.5 325 L 301.5 329 L 322 342 L 332 355.5 L 338 370.5 L 339 375.5 L 339 397 L 359.5 397 L 360 394.5 L 325 285 L 310.5 291 L 298.5 292 L 291 287.5 L 288 279.5 L 285 252.5 L 276 207.5 L 260 153.5 L 241 112.5 Q 231.1 95.4 216.5 83 L 199.5 73 L 182.5 70 L 50.5 70 L 49 71.5 L 49 265 L 12.5 265 L 5 270.5 Q 1.3 275.8 0.5 284 L 0 0 Z M 271 332 Q 255 336 245 345 Q 231 356 227 378 L 227 392 L 229 401 Q 233 412 241 421 Q 252 433 273 437 L 287 437 L 296 435 Q 307 431 315 424 Q 327 413 332 394 Q 334 380 331 372 Q 328 359 320 351 Q 311 339 297 334 L 289 332 L 271 332 Z M 88 341 L 75 344 L 61 352 Q 50 360 45 373 L 42 382 L 42 391 L 41 392 L 42 393 L 42 401 L 45 411 L 53 424 Q 63 437 83 441 L 102 441 Q 115 438 124 430 L 134 419 L 139 409 L 142 396 Q 142 374 132 362 Q 124 351 112 345 L 97 341 L 88 341 Z " /><path fill="rgb(0,0,0)" stroke="rgb(0,0,0)" stroke-width="1" opacity="0" d="M 81 103 L 183.5 103 Q 197.6 106.9 205 117.5 L 217 137.5 L 226 161.5 L 241 227.5 L 252 288.5 L 181.5 289 L 148.5 233 L 81 233 L 81 103 Z " /><path fill="rgb(0,0,0)" stroke="rgb(0,0,0)" stroke-width="1" opacity="0" d="M 278.5 354 L 290.5 356 Q 298.9 359.6 304 366.5 L 308 373.5 L 310 385.5 L 306 399.5 L 297.5 409 L 292.5 412 L 279.5 415 L 269.5 413 Q 261.1 409.9 256 403.5 L 250 391.5 L 250 377.5 Q 253 366 261.5 360 L 268.5 356 L 278.5 354 Z " /><path fill="rgb(0,0,0)" stroke="rgb(0,0,0)" stroke-width="1" opacity="0" d="M 85.5 363 Q 97 361.5 103.5 365 L 115 374.5 L 120 385.5 L 120 396.5 Q 117.3 407.8 109.5 414 Q 102.1 420.6 87.5 420 Q 76.2 417.8 70 410.5 Q 62.4 403.1 63 387.5 Q 65.4 375.4 73.5 369 L 85.5 363 Z " /><path fill="rgb(2,1,3)" stroke="rgb(2,1,3)" stroke-width="1" opacity="0.8392156862745098" d="M 49.5 71 L 50 264.5 L 48.5 266 L 14.5 266 L 14.5 265 L 48.5 265 L 49 264.5 L 49.5 71 Z " /><path fill="rgb(2,1,3)" stroke="rgb(2,1,3)" stroke-width="1" opacity="0.8392156862745098" d="M 187.5 71 L 190 71.5 L 187.5 72 L 187.5 71 Z " /><path fill="rgb(2,1,3)" stroke="rgb(2,1,3)" stroke-width="1" opacity="0.8392156862745098" d="M 289.5 74 L 291.5 77 L 289.5 74 Z " /><path fill="rgb(2,1,3)" stroke="rgb(2,1,3)" stroke-width="1" opacity="0.8392156862745098" d="M 218.5 85 L 225.5 93 L 218.5 85 Z " /><path fill="rgb(2,1,3)" stroke="rgb(2,1,3)" stroke-width="1" opacity="0.8392156862745098" d="M 229.5 97 L 230.5 99 L 229.5 97 Z " /><path fill="rgb(2,1,3)" stroke="rgb(2,1,3)" stroke-width="1" opacity="0.8392156862745098" d="M 232.5 101 L 233.5 103 L 232.5 101 Z " /><path fill="rgb(2,1,3)" stroke="rgb(2,1,3)" stroke-width="1" opacity="0.8392156862745098" d="M 80.5 103 L 81 232.5 L 80 232.5 L 80.5 103 Z " /><path fill="rgb(2,1,3)" stroke="rgb(2,1,3)" stroke-width="1" opacity="0.8392156862745098" d="M 197.5 109 L 199.5 112 L 197.5 109 Z " /><path fill="rgb(2,1,3)" stroke="rgb(2,1,3)" stroke-width="1" opacity="0.8392156862745098" d="M 201.5 113 L 204.5 117 L 201.5 113 Z " /><path fill="rgb(2,1,3)" stroke="rgb(2,1,3)" stroke-width="1" opacity="0.8392156862745098" d="M 7.5 268 L 6.5 270 L 7.5 268 Z " /><path fill="rgb(2,1,3)" stroke="rgb(2,1,3)" stroke-width="1" opacity="0.8392156862745098" d="M 290.5 287 L 292.5 290 L 290.5 287 Z " /><path fill="rgb(2,1,3)" stroke="rgb(2,1,3)" stroke-width="1" opacity="0.8392156862745098" d="M 0.5 289 L 1 292.5 L 0 292.5 L 0.5 289 Z " /><path fill="rgb(2,1,3)" stroke="rgb(2,1,3)" stroke-width="1" opacity="0.8392156862745098" d="M 303.5 292 L 306 292.5 L 303.5 293 L 303.5 292 Z " /><path fill="rgb(2,1,3)" stroke="rgb(2,1,3)" stroke-width="1" opacity="0.8392156862745098" d="M 0.5 298 L 1 305.5 L 0 305.5 L 0.5 298 Z " /><path fill="rgb(2,1,3)" stroke="rgb(2,1,3)" stroke-width="1" opacity="0.8392156862745098" d="M 507.5 329 L 509.5 332 L 507.5 329 Z " /><path fill="rgb(2,1,3)" stroke="rgb(2,1,3)" stroke-width="1" opacity="0.8392156862745098" d="M 273.5 332 L 277 332.5 L 273.5 333 L 273.5 332 Z " /><path fill="rgb(2,1,3)" stroke="rgb(2,1,3)" stroke-width="1" opacity="0.8392156862745098" d="M 282.5 332 L 286 332.5 L 282.5 333 L 282.5 332 Z " /><path fill="rgb(2,1,3)" stroke="rgb(2,1,3)" stroke-width="1" opacity="0.8392156862745098" d="M 511.5 336 L 512 339.5 L 511 339.5 L 511.5 336 Z " /><path fill="rgb(2,1,3)" stroke="rgb(2,1,3)" stroke-width="1" opacity="0.8392156862745098" d="M 239.5 339 L 233.5 346 L 239.5 339 Z " /><path fill="rgb(2,1,3)" stroke="rgb(2,1,3)" stroke-width="1" opacity="0.8392156862745098" d="M 310.5 342 L 311.5 344 L 310.5 342 Z " /><path fill="rgb(2,1,3)" stroke="rgb(2,1,3)" stroke-width="1" opacity="0.8392156862745098" d="M 247.5 343 L 246.5 345 L 247.5 343 Z " /><path fill="rgb(2,1,3)" stroke="rgb(2,1,3)" stroke-width="1" opacity="0.8392156862745098" d="M 57.5 344 L 56.5 346 L 57.5 344 Z " /><path fill="rgb(2,1,3)" stroke="rgb(2,1,3)" stroke-width="1" opacity="0.8392156862745098" d="M 128.5 344 L 129.5 346 L 128.5 344 Z " /><path fill="rgb(2,1,3)" stroke="rgb(2,1,3)" stroke-width="1" opacity="0.8392156862745098" d="M 509.5 344 L 507.5 347 L 509.5 344 Z " /><path fill="rgb(2,1,3)" stroke="rgb(2,1,3)" stroke-width="1" opacity="0.8392156862745098" d="M 315.5 346 L 317.5 349 L 315.5 346 Z " /><path fill="rgb(2,1,3)" stroke="rgb(2,1,3)" stroke-width="1" opacity="0.8392156862745098" d="M 326.5 347 L 327.5 349 L 326.5 347 Z " /><path fill="rgb(2,1,3)" stroke="rgb(2,1,3)" stroke-width="1" opacity="0.8392156862745098" d="M 230.5 349 L 229.5 351 L 230.5 349 Z " /><path fill="rgb(2,1,3)" stroke="rgb(2,1,3)" stroke-width="1" opacity="0.8392156862745098" d="M 63.5 350 L 62.5 352 L 63.5 350 Z " /><path fill="rgb(2,1,3)" stroke="rgb(2,1,3)" stroke-width="1" opacity="0.8392156862745098" d="M 50.5 351 L 48.5 354 L 50.5 351 Z " /><path fill="rgb(2,1,3)" stroke="rgb(2,1,3)" stroke-width="1" opacity="0.8392156862745098" d="M 239.5 351 L 238.5 353 L 239.5 351 Z " /><path fill="rgb(2,1,3)" stroke="rgb(2,1,3)" stroke-width="1" opacity="0.8392156862745098" d="M 136.5 352 L 138.5 355 L 136.5 352 Z " /><path fill="rgb(2,1,3)" stroke="rgb(2,1,3)" stroke-width="1" opacity="0.8392156862745098" d="M 320.5 352 L 321.5 354 L 320.5 352 Z " /><path fill="rgb(2,1,3)" stroke="rgb(2,1,3)" stroke-width="1" opacity="0.8392156862745098" d="M 124.5 354 L 125.5 356 L 124.5 354 Z " /><path fill="rgb(2,1,3)" stroke="rgb(2,1,3)" stroke-width="1" opacity="0.8392156862745098" d="M 57.5 355 L 55.5 358 L 57.5 355 Z " /><path fill="rgb(2,1,3)" stroke="rgb(2,1,3)" stroke-width="1" opacity="0.8392156862745098" d="M 127.5 357 L 128.5 359 L 127.5 357 Z " /><path fill="rgb(2,1,3)" stroke="rgb(2,1,3)" stroke-width="1" opacity="0.8392156862745098" d="M 297.5 359 L 299.5 362 L 297.5 359 Z " /><path fill="rgb(2,1,3)" stroke="rgb(2,1,3)" stroke-width="1" opacity="0.8392156862745098" d="M 260.5 360 L 255.5 366 L 260.5 360 Z " /><path fill="rgb(2,1,3)" stroke="rgb(2,1,3)" stroke-width="1" opacity="0.8392156862745098" d="M 51.5 362 L 50.5 364 L 51.5 362 Z " /><path fill="rgb(2,1,3)" stroke="rgb(2,1,3)" stroke-width="1" opacity="0.8392156862745098" d="M 87.5 362 L 90 362.5 L 87.5 363 L 87.5 362 Z " /><path fill="rgb(2,1,3)" stroke="rgb(2,1,3)" stroke-width="1" opacity="0.8392156862745098" d="M 93.5 362 L 96 362.5 L 93.5 363 L 93.5 362 Z " /><path fill="rgb(2,1,3)" stroke="rgb(2,1,3)" stroke-width="1" opacity="0.8392156862745098" d="M 302.5 364 L 304.5 367 L 302.5 364 Z " /><path fill="rgb(2,1,3)" stroke="rgb(2,1,3)" stroke-width="1" opacity="0.8392156862745098" d="M 109.5 368 L 110.5 370 L 109.5 368 Z " /><path fill="rgb(2,1,3)" stroke="rgb(2,1,3)" stroke-width="1" opacity="0.8392156862745098" d="M 72.5 369 L 69.5 373 L 72.5 369 Z " /><path fill="rgb(2,1,3)" stroke="rgb(2,1,3)" stroke-width="1" opacity="0.8392156862745098" d="M 113.5 372 L 114.5 374 L 113.5 372 Z " /><path fill="rgb(2,1,3)" stroke="rgb(2,1,3)" stroke-width="1" opacity="0.8392156862745098" d="M 331.5 378 L 332 381.5 L 331 381.5 L 331.5 378 Z " /><path fill="rgb(2,1,3)" stroke="rgb(2,1,3)" stroke-width="1" opacity="0.8392156862745098" d="M 227.5 380 L 228 387.5 L 227 387.5 L 227.5 380 Z " /><path fill="rgb(2,1,3)" stroke="rgb(2,1,3)" stroke-width="1" opacity="0.8392156862745098" d="M 331.5 387 L 332 390.5 L 331 390.5 L 331.5 387 Z " /><path fill="rgb(2,1,3)" stroke="rgb(2,1,3)" stroke-width="1" opacity="0.8392156862745098" d="M 379.5 388 L 382 388.5 L 379.5 389 L 379.5 388 Z " /><path fill="rgb(2,1,3)" stroke="rgb(2,1,3)" stroke-width="1" opacity="0.8392156862745098" d="M 62.5 390 L 63 392.5 L 62 392.5 L 62.5 390 Z " /><path fill="rgb(2,1,3)" stroke="rgb(2,1,3)" stroke-width="1" opacity="0.8392156862745098" d="M 359.5 395 L 358.5 397 L 339 396.5 L 358.5 396 L 359.5 395 Z " /><path fill="rgb(2,1,3)" stroke="rgb(2,1,3)" stroke-width="1" opacity="0.8392156862745098" d="M 303.5 403 L 302.5 405 L 303.5 403 Z " /><path fill="rgb(2,1,3)" stroke="rgb(2,1,3)" stroke-width="1" opacity="0.8392156862745098" d="M 256.5 404 L 259.5 408 L 256.5 404 Z " /><path fill="rgb(2,1,3)" stroke="rgb(2,1,3)" stroke-width="1" opacity="0.8392156862745098" d="M 299.5 407 L 298.5 409 L 299.5 407 Z " /><path fill="rgb(2,1,3)" stroke="rgb(2,1,3)" stroke-width="1" opacity="0.8392156862745098" d="M 113.5 410 L 110.5 414 L 113.5 410 Z " /><path fill="rgb(2,1,3)" stroke="rgb(2,1,3)" stroke-width="1" opacity="0.8392156862745098" d="M 70.5 411 L 71.5 413 L 70.5 411 Z " /><path fill="rgb(2,1,3)" stroke="rgb(2,1,3)" stroke-width="1" opacity="0.8392156862745098" d="M 320.5 416 L 319.5 418 L 320.5 416 Z " /><path fill="rgb(2,1,3)" stroke="rgb(2,1,3)" stroke-width="1" opacity="0.8392156862745098" d="M 239.5 417 L 240.5 419 L 239.5 417 Z " /><path fill="rgb(2,1,3)" stroke="rgb(2,1,3)" stroke-width="1" opacity="0.8392156862745098" d="M 132.5 419 L 130.5 422 L 132.5 419 Z " /><path fill="rgb(2,1,3)" stroke="rgb(2,1,3)" stroke-width="1" opacity="0.8392156862745098" d="M 51.5 420 L 52.5 422 L 51.5 420 Z " /><path fill="rgb(2,1,3)" stroke="rgb(2,1,3)" stroke-width="1" opacity="0.8392156862745098" d="M 90.5 420 L 93 420.5 L 90.5 421 L 90.5 420 Z " /><path fill="rgb(2,1,3)" stroke="rgb(2,1,3)" stroke-width="1" opacity="0.8392156862745098" d="M 245.5 423 L 246.5 425 L 245.5 423 Z " /><path fill="rgb(2,1,3)" stroke="rgb(2,1,3)" stroke-width="1" opacity="0.8392156862745098" d="M 312.5 424 L 311.5 426 L 312.5 424 Z " /><path fill="rgb(2,1,3)" stroke="rgb(2,1,3)" stroke-width="1" opacity="0.8392156862745098" d="M 127.5 425 L 125.5 428 L 127.5 425 Z " /><path fill="rgb(2,1,3)" stroke="rgb(2,1,3)" stroke-width="1" opacity="0.8392156862745098" d="M 61.5 430 L 62.5 432 L 61.5 430 Z " /><path fill="rgb(2,1,3)" stroke="rgb(2,1,3)" stroke-width="1" opacity="0.8392156862745098" d="M 121.5 430 L 120.5 432 L 121.5 430 Z " /><path fill="rgb(2,1,3)" stroke="rgb(2,1,3)" stroke-width="1" opacity="0.8392156862745098" d="M 276.5 436 L 283 436.5 L 276.5 437 L 276.5 436 Z " /><path fill="rgb(3,1,4)" stroke="rgb(3,1,4)" stroke-width="1" opacity="0.996078431372549" d="M 50 71 L 186.5 71 Q 188 73.5 193.5 72 Q 216.6 78.9 229 96.5 Q 242.8 113.7 252 135.5 L 267 176.5 L 276 210.5 L 284 250.5 L 288 283.5 L 292.5 290 Q 296.6 293.9 305.5 293 L 325 286 L 325 289.5 L 359 396 L 339.5 396 L 339 394.5 L 340 393.5 L 340 377.5 Q 335 350.5 316.5 337 L 297.5 327 L 289.5 325 L 269.5 325 Q 245.8 329.8 233 345.5 Q 225.4 354.4 221 366.5 L 219 374.5 L 219 383.5 L 218 386 L 150.5 386 Q 149.4 385.9 150 380.5 Q 145.3 356.2 128.5 344 Q 121 337.5 110.5 334 L 101.5 332 L 84.5 332 Q 60.2 336.7 48 353.5 Q 37.3 365.6 36 386 L 15.5 386 L 15 382.5 L 10 365.5 L 4 335.5 L 2 315.5 L 1 314.5 L 1 298.5 L 0 293.5 L 1 292.5 L 1 283.5 L 3 275.5 L 9.5 267 L 11.5 266 L 48.5 266 L 50 264.5 L 50 71 Z M 82 102 L 80 104 L 80 233 L 82 234 L 149 234 L 180 288 L 181 289 L 252 289 L 248 260 L 227 163 Q 219 136 205 117 Q 197 106 183 102 L 82 102 Z " /><path fill="rgb(3,1,4)" stroke="rgb(3,1,4)" stroke-width="1" opacity="0.996078431372549" d="M 280.5 72 Q 289.4 71.6 292 77.5 L 374 321.5 L 386 360.5 L 388.5 364 L 461.5 339 L 464.5 339 L 495.5 328 L 502.5 327 L 510 332.5 Q 512.3 335.7 511 342.5 L 503.5 349 L 394.5 385 L 384.5 388 L 377.5 388 L 372 384.5 L 272 86.5 L 272 79.5 L 276.5 74 L 280.5 72 Z " /><path fill="rgb(3,1,4)" stroke="rgb(3,1,4)" stroke-width="1" opacity="0.996078431372549" d="M 277.5 332 L 289.5 333 L 299.5 336 Q 311.9 341.6 320 351.5 L 328 364.5 L 331 374.5 L 332 386.5 L 328 404.5 Q 322.8 416.3 313.5 424 L 296.5 434 L 288.5 436 L 270.5 436 Q 251.5 432 241 419.5 Q 233.7 412.3 230 401.5 L 228 393.5 L 228 375.5 Q 232.2 355.7 245.5 345 L 259.5 336 L 277.5 332 Z M 274 354 L 261 360 Q 252 367 249 379 L 249 391 L 256 405 Q 262 412 274 415 L 286 415 L 299 409 Q 307 402 310 391 L 310 378 L 305 367 Q 300 358 290 355 L 274 354 Z " /><path fill="rgb(3,1,4)" stroke="rgb(3,1,4)" stroke-width="1" opacity="0.996078431372549" d="M 84.5 342 L 98.5 342 L 109.5 345 L 127 356 L 138 373.5 L 141 385.5 L 141 397.5 Q 137.2 419.2 122.5 430 Q 114.6 437.1 102.5 440 L 86.5 441 Q 64.3 437.2 53 422.5 L 44 405.5 L 42 396.5 L 42 386.5 L 47 369.5 Q 52.4 358.9 61.5 352 L 73.5 345 L 84.5 342 Z M 88 362 Q 78 364 73 369 L 64 381 L 62 391 Q 63 404 70 412 L 82 419 L 91 421 L 105 418 L 111 414 Q 119 407 121 395 Q 121 381 115 374 Q 107 362 88 362 Z " /><path fill="rgb(3,0,4)" stroke="rgb(3,0,4)" stroke-width="1" opacity="0.4627450980392157" d="M 50.5 70 L 183 70.5 L 50.5 71 L 50.5 70 Z " /><path fill="rgb(3,0,4)" stroke="rgb(3,0,4)" stroke-width="1" opacity="0.4627450980392157" d="M 274.5 75 L 273.5 77 L 274.5 75 Z " /><path fill="rgb(3,0,4)" stroke="rgb(3,0,4)" stroke-width="1" opacity="0.4627450980392157" d="M 212.5 80 L 213.5 82 L 212.5 80 Z " /><path fill="rgb(3,0,4)" stroke="rgb(3,0,4)" stroke-width="1" opacity="0.4627450980392157" d="M 271.5 80 L 272 85.5 L 271 85.5 L 271.5 80 Z " /><path fill="rgb(3,0,4)" stroke="rgb(3,0,4)" stroke-width="1" opacity="0.4627450980392157" d="M 216.5 83 L 217.5 85 L 216.5 83 Z " /><path fill="rgb(3,0,4)" stroke="rgb(3,0,4)" stroke-width="1" opacity="0.4627450980392157" d="M 226.5 93 L 228.5 96 L 226.5 93 Z " /><path fill="rgb(3,0,4)" stroke="rgb(3,0,4)" stroke-width="1" opacity="0.4627450980392157" d="M 231.5 99 L 232.5 101 L 231.5 99 Z " /><path fill="rgb(3,0,4)" stroke="rgb(3,0,4)" stroke-width="1" opacity="0.4627450980392157" d="M 81.5 102 L 181 102.5 L 81.5 103 L 81.5 102 Z " /><path fill="rgb(3,0,4)" stroke="rgb(3,0,4)" stroke-width="1" opacity="0.4627450980392157" d="M 207.5 121 L 208.5 123 L 207.5 121 Z " /><path fill="rgb(3,0,4)" stroke="rgb(3,0,4)" stroke-width="1" opacity="0.4627450980392157" d="M 280.5 231 L 281 233.5 L 280 233.5 L 280.5 231 Z " /><path fill="rgb(3,0,4)" stroke="rgb(3,0,4)" stroke-width="1" opacity="0.4627450980392157" d="M 81.5 233 L 149 233.5 L 81.5 234 L 81.5 233 Z " /><path fill="rgb(3,0,4)" stroke="rgb(3,0,4)" stroke-width="1" opacity="0.4627450980392157" d="M 281.5 236 L 282 238.5 L 281 238.5 L 281.5 236 Z " /><path fill="rgb(3,0,4)" stroke="rgb(3,0,4)" stroke-width="1" opacity="0.4627450980392157" d="M 244.5 245 L 245 247.5 L 244 247.5 L 244.5 245 Z " /><path fill="rgb(3,0,4)" stroke="rgb(3,0,4)" stroke-width="1" opacity="0.4627450980392157" d="M 245.5 250 L 246 252.5 L 245 252.5 L 245.5 250 Z " /><path fill="rgb(3,0,4)" stroke="rgb(3,0,4)" stroke-width="1" opacity="0.4627450980392157" d="M 284.5 252 L 285 254.5 L 284 254.5 L 284.5 252 Z " /><path fill="rgb(3,0,4)" stroke="rgb(3,0,4)" stroke-width="1" opacity="0.4627450980392157" d="M 285.5 259 L 286 261.5 L 285 261.5 L 285.5 259 Z " /><path fill="rgb(3,0,4)" stroke="rgb(3,0,4)" stroke-width="1" opacity="0.4627450980392157" d="M 9.5 266 L 8.5 268 L 9.5 266 Z " /><path fill="rgb(3,0,4)" stroke="rgb(3,0,4)" stroke-width="1" opacity="0.4627450980392157" d="M 248.5 266 L 249 268.5 L 248 268.5 L 248.5 266 Z " /><path fill="rgb(3,0,4)" stroke="rgb(3,0,4)" stroke-width="1" opacity="0.4627450980392157" d="M 249.5 272 L 250 274.5 L 249 274.5 L 249.5 272 Z " /><path fill="rgb(3,0,4)" stroke="rgb(3,0,4)" stroke-width="1" opacity="0.4627450980392157" d="M 287.5 272 L 288 274.5 L 287 274.5 L 287.5 272 Z " /><path fill="rgb(3,0,4)" stroke="rgb(3,0,4)" stroke-width="1" opacity="0.4627450980392157" d="M 288.5 280 L 289 282.5 L 288 282.5 L 288.5 280 Z " /><path fill="rgb(3,0,4)" stroke="rgb(3,0,4)" stroke-width="1" opacity="0.4627450980392157" d="M 0.5 284 L 1 288.5 L 0 288.5 L 0.5 284 Z " /><path fill="rgb(3,0,4)" stroke="rgb(3,0,4)" stroke-width="1" opacity="0.4627450980392157" d="M 251.5 285 L 252 287.5 L 251 287.5 L 251.5 285 Z " /><path fill="rgb(3,0,4)" stroke="rgb(3,0,4)" stroke-width="1" opacity="0.4627450980392157" d="M 0.5 306 L 1 311.5 L 0 311.5 L 0.5 306 Z " /><path fill="rgb(3,0,4)" stroke="rgb(3,0,4)" stroke-width="1" opacity="0.4627450980392157" d="M 1.5 317 L 2 320.5 L 1 320.5 L 1.5 317 Z " /><path fill="rgb(3,0,4)" stroke="rgb(3,0,4)" stroke-width="1" opacity="0.4627450980392157" d="M 2.5 325 L 3 327.5 L 2 327.5 L 2.5 325 Z " /><path fill="rgb(3,0,4)" stroke="rgb(3,0,4)" stroke-width="1" opacity="0.4627450980392157" d="M 270.5 325 L 274 325.5 L 270.5 326 L 270.5 325 Z " /><path fill="rgb(3,0,4)" stroke="rgb(3,0,4)" stroke-width="1" opacity="0.4627450980392157" d="M 285.5 325 L 288 325.5 L 285.5 326 L 285.5 325 Z " /><path fill="rgb(3,0,4)" stroke="rgb(3,0,4)" stroke-width="1" opacity="0.4627450980392157" d="M 3.5 331 L 4 333.5 L 3 333.5 L 3.5 331 Z " /><path fill="rgb(3,0,4)" stroke="rgb(3,0,4)" stroke-width="1" opacity="0.4627450980392157" d="M 86.5 332 L 91 332.5 L 86.5 333 L 86.5 332 Z " /><path fill="rgb(3,0,4)" stroke="rgb(3,0,4)" stroke-width="1" opacity="0.4627450980392157" d="M 95.5 332 L 100 332.5 L 95.5 333 L 95.5 332 Z " /><path fill="rgb(3,0,4)" stroke="rgb(3,0,4)" stroke-width="1" opacity="0.4627450980392157" d="M 270.5 332 L 273 332.5 L 270.5 333 L 270.5 332 Z " /><path fill="rgb(3,0,4)" stroke="rgb(3,0,4)" stroke-width="1" opacity="0.4627450980392157" d="M 286.5 332 L 289 332.5 L 286.5 333 L 286.5 332 Z " /><path fill="rgb(3,0,4)" stroke="rgb(3,0,4)" stroke-width="1" opacity="0.4627450980392157" d="M 313.5 335 L 314.5 337 L 313.5 335 Z " /><path fill="rgb(3,0,4)" stroke="rgb(3,0,4)" stroke-width="1" opacity="0.4627450980392157" d="M 4.5 337 L 5 339.5 L 4 339.5 L 4.5 337 Z " /><path fill="rgb(3,0,4)" stroke="rgb(3,0,4)" stroke-width="1" opacity="0.4627450980392157" d="M 242.5 337 L 241.5 339 L 242.5 337 Z " /><path fill="rgb(3,0,4)" stroke="rgb(3,0,4)" stroke-width="1" opacity="0.4627450980392157" d="M 317.5 338 L 320.5 342 L 317.5 338 Z " /><path fill="rgb(3,0,4)" stroke="rgb(3,0,4)" stroke-width="1" opacity="0.4627450980392157" d="M 308.5 340 L 309.5 342 L 308.5 340 Z " /><path fill="rgb(3,0,4)" stroke="rgb(3,0,4)" stroke-width="1" opacity="0.4627450980392157" d="M 87.5 341 L 97 341.5 L 87.5 342 L 87.5 341 Z " /><path fill="rgb(3,0,4)" stroke="rgb(3,0,4)" stroke-width="1" opacity="0.4627450980392157" d="M 249.5 341 L 248.5 343 L 249.5 341 Z " /><path fill="rgb(3,0,4)" stroke="rgb(3,0,4)" stroke-width="1" opacity="0.4627450980392157" d="M 60.5 342 L 58.5 345 L 60.5 342 Z " /><path fill="rgb(3,0,4)" stroke="rgb(3,0,4)" stroke-width="1" opacity="0.4627450980392157" d="M 125.5 342 L 126.5 344 L 125.5 342 Z " /><path fill="rgb(3,0,4)" stroke="rgb(3,0,4)" stroke-width="1" opacity="0.4627450980392157" d="M 5.5 343 L 6 345.5 L 5 345.5 L 5.5 343 Z " /><path fill="rgb(3,0,4)" stroke="rgb(3,0,4)" stroke-width="1" opacity="0.4627450980392157" d="M 322.5 343 L 325.5 347 L 322.5 343 Z " /><path fill="rgb(3,0,4)" stroke="rgb(3,0,4)" stroke-width="1" opacity="0.4627450980392157" d="M 313.5 344 L 314.5 346 L 313.5 344 Z " /><path fill="rgb(3,0,4)" stroke="rgb(3,0,4)" stroke-width="1" opacity="0.4627450980392157" d="M 244.5 345 L 240.5 350 L 244.5 345 Z " /><path fill="rgb(3,0,4)" stroke="rgb(3,0,4)" stroke-width="1" opacity="0.4627450980392157" d="M 55.5 346 L 51.5 351 L 55.5 346 Z " /><path fill="rgb(3,0,4)" stroke="rgb(3,0,4)" stroke-width="1" opacity="0.4627450980392157" d="M 130.5 346 L 131.5 348 L 130.5 346 Z " /><path fill="rgb(3,0,4)" stroke="rgb(3,0,4)" stroke-width="1" opacity="0.4627450980392157" d="M 232.5 347 L 231.5 349 L 232.5 347 Z " /><path fill="rgb(3,0,4)" stroke="rgb(3,0,4)" stroke-width="1" opacity="0.4627450980392157" d="M 133.5 349 L 135.5 352 L 133.5 349 Z " /><path fill="rgb(3,0,4)" stroke="rgb(3,0,4)" stroke-width="1" opacity="0.4627450980392157" d="M 318.5 349 L 319.5 351 L 318.5 349 Z " /><path fill="rgb(3,0,4)" stroke="rgb(3,0,4)" stroke-width="1" opacity="0.4627450980392157" d="M 121.5 351 L 123.5 354 L 121.5 351 Z " /><path fill="rgb(3,0,4)" stroke="rgb(3,0,4)" stroke-width="1" opacity="0.4627450980392157" d="M 229.5 351 L 228.5 353 L 229.5 351 Z " /><path fill="rgb(3,0,4)" stroke="rgb(3,0,4)" stroke-width="1" opacity="0.4627450980392157" d="M 60.5 352 L 58.5 355 L 60.5 352 Z " /><path fill="rgb(3,0,4)" stroke="rgb(3,0,4)" stroke-width="1" opacity="0.4627450980392157" d="M 237.5 353 L 236.5 355 L 237.5 353 Z " /><path fill="rgb(3,0,4)" stroke="rgb(3,0,4)" stroke-width="1" opacity="0.4627450980392157" d="M 274.5 354 L 278 354.5 L 274.5 355 L 274.5 354 Z " /><path fill="rgb(3,0,4)" stroke="rgb(3,0,4)" stroke-width="1" opacity="0.4627450980392157" d="M 281.5 354 L 285 354.5 L 281.5 355 L 281.5 354 Z " /><path fill="rgb(3,0,4)" stroke="rgb(3,0,4)" stroke-width="1" opacity="0.4627450980392157" d="M 322.5 354 L 323.5 356 L 322.5 354 Z " /><path fill="rgb(3,0,4)" stroke="rgb(3,0,4)" stroke-width="1" opacity="0.4627450980392157" d="M 47.5 355 L 46.5 357 L 47.5 355 Z " /><path fill="rgb(3,0,4)" stroke="rgb(3,0,4)" stroke-width="1" opacity="0.4627450980392157" d="M 45.5 358 L 44.5 360 L 45.5 358 Z " /><path fill="rgb(3,0,4)" stroke="rgb(3,0,4)" stroke-width="1" opacity="0.4627450980392157" d="M 54.5 358 L 52.5 361 L 54.5 358 Z " /><path fill="rgb(3,0,4)" stroke="rgb(3,0,4)" stroke-width="1" opacity="0.4627450980392157" d="M 129.5 359 L 131.5 362 L 129.5 359 Z " /><path fill="rgb(3,0,4)" stroke="rgb(3,0,4)" stroke-width="1" opacity="0.4627450980392157" d="M 90.5 362 L 93 362.5 L 90.5 363 L 90.5 362 Z " /><path fill="rgb(3,0,4)" stroke="rgb(3,0,4)" stroke-width="1" opacity="0.4627450980392157" d="M 300.5 362 L 301.5 364 L 300.5 362 Z " /><path fill="rgb(3,0,4)" stroke="rgb(3,0,4)" stroke-width="1" opacity="0.4627450980392157" d="M 75.5 367 L 74.5 369 L 75.5 367 Z " /><path fill="rgb(3,0,4)" stroke="rgb(3,0,4)" stroke-width="1" opacity="0.4627450980392157" d="M 304.5 367 L 305.5 369 L 304.5 367 Z " /><path fill="rgb(3,0,4)" stroke="rgb(3,0,4)" stroke-width="1" opacity="0.4627450980392157" d="M 111.5 370 L 112.5 372 L 111.5 370 Z " /><path fill="rgb(3,0,4)" stroke="rgb(3,0,4)" stroke-width="1" opacity="0.4627450980392157" d="M 68.5 374 L 67.5 376 L 68.5 374 Z " /><path fill="rgb(3,0,4)" stroke="rgb(3,0,4)" stroke-width="1" opacity="0.4627450980392157" d="M 331.5 375 L 332 377.5 L 331 377.5 L 331.5 375 Z " /><path fill="rgb(3,0,4)" stroke="rgb(3,0,4)" stroke-width="1" opacity="0.4627450980392157" d="M 219.5 376 L 220 378.5 L 219 378.5 L 219.5 376 Z " /><path fill="rgb(3,0,4)" stroke="rgb(3,0,4)" stroke-width="1" opacity="0.4627450980392157" d="M 227.5 377 L 228 379.5 L 227 379.5 L 227.5 377 Z " /><path fill="rgb(3,0,4)" stroke="rgb(3,0,4)" stroke-width="1" opacity="0.4627450980392157" d="M 309.5 378 L 310 382.5 L 309 382.5 L 309.5 378 Z " /><path fill="rgb(3,0,4)" stroke="rgb(3,0,4)" stroke-width="1" opacity="0.4627450980392157" d="M 339.5 379 L 340 391.5 L 339 391.5 L 339.5 379 Z " /><path fill="rgb(3,0,4)" stroke="rgb(3,0,4)" stroke-width="1" opacity="0.4627450980392157" d="M 249.5 380 L 250 388.5 L 249 388.5 L 249.5 380 Z " /><path fill="rgb(3,0,4)" stroke="rgb(3,0,4)" stroke-width="1" opacity="0.4627450980392157" d="M 42.5 381 L 43 383.5 L 42 383.5 L 42.5 381 Z " /><path fill="rgb(3,0,4)" stroke="rgb(3,0,4)" stroke-width="1" opacity="0.4627450980392157" d="M 149.5 382 L 150 385.5 L 149 385.5 L 149.5 382 Z " /><path fill="rgb(3,0,4)" stroke="rgb(3,0,4)" stroke-width="1" opacity="0.4627450980392157" d="M 36.5 383 L 37 385.5 L 36 385.5 L 36.5 383 Z " /><path fill="rgb(3,0,4)" stroke="rgb(3,0,4)" stroke-width="1" opacity="0.4627450980392157" d="M 309.5 386 L 310 389.5 L 309 389.5 L 309.5 386 Z " /><path fill="rgb(3,0,4)" stroke="rgb(3,0,4)" stroke-width="1" opacity="0.4627450980392157" d="M 141.5 387 L 142 395.5 L 141 395.5 L 141.5 387 Z " /><path fill="rgb(3,0,4)" stroke="rgb(3,0,4)" stroke-width="1" opacity="0.4627450980392157" d="M 227.5 388 L 228 391.5 L 227 391.5 L 227.5 388 Z " /><path fill="rgb(3,0,4)" stroke="rgb(3,0,4)" stroke-width="1" opacity="0.4627450980392157" d="M 382.5 388 L 385 388.5 L 382.5 389 L 382.5 388 Z " /><path fill="rgb(3,0,4)" stroke="rgb(3,0,4)" stroke-width="1" opacity="0.4627450980392157" d="M 120.5 390 L 121 392.5 L 120 392.5 L 120.5 390 Z " /><path fill="rgb(3,0,4)" stroke="rgb(3,0,4)" stroke-width="1" opacity="0.4627450980392157" d="M 331.5 391 L 332 393.5 L 331 393.5 L 331.5 391 Z " /><path fill="rgb(3,0,4)" stroke="rgb(3,0,4)" stroke-width="1" opacity="0.4627450980392157" d="M 254.5 401 L 255.5 403 L 254.5 401 Z " /><path fill="rgb(3,0,4)" stroke="rgb(3,0,4)" stroke-width="1" opacity="0.4627450980392157" d="M 301.5 405 L 300.5 407 L 301.5 405 Z " /><path fill="rgb(3,0,4)" stroke="rgb(3,0,4)" stroke-width="1" opacity="0.4627450980392157" d="M 115.5 407 L 114.5 409 L 115.5 407 Z " /><path fill="rgb(3,0,4)" stroke="rgb(3,0,4)" stroke-width="1" opacity="0.4627450980392157" d="M 68.5 408 L 69.5 410 L 68.5 408 Z " /><path fill="rgb(3,0,4)" stroke="rgb(3,0,4)" stroke-width="1" opacity="0.4627450980392157" d="M 261.5 408 L 262.5 410 L 261.5 408 Z " /><path fill="rgb(3,0,4)" stroke="rgb(3,0,4)" stroke-width="1" opacity="0.4627450980392157" d="M 73.5 413 L 74.5 415 L 73.5 413 Z " /><path fill="rgb(3,0,4)" stroke="rgb(3,0,4)" stroke-width="1" opacity="0.4627450980392157" d="M 108.5 414 L 107.5 416 L 108.5 414 Z " /><path fill="rgb(3,0,4)" stroke="rgb(3,0,4)" stroke-width="1" opacity="0.4627450980392157" d="M 236.5 414 L 238.5 417 L 236.5 414 Z " /><path fill="rgb(3,0,4)" stroke="rgb(3,0,4)" stroke-width="1" opacity="0.4627450980392157" d="M 275.5 414 L 279 414.5 L 275.5 415 L 275.5 414 Z " /><path fill="rgb(3,0,4)" stroke="rgb(3,0,4)" stroke-width="1" opacity="0.4627450980392157" d="M 280.5 414 L 284 414.5 L 280.5 415 L 280.5 414 Z " /><path fill="rgb(3,0,4)" stroke="rgb(3,0,4)" stroke-width="1" opacity="0.4627450980392157" d="M 322.5 414 L 321.5 416 L 322.5 414 Z " /><path fill="rgb(3,0,4)" stroke="rgb(3,0,4)" stroke-width="1" opacity="0.4627450980392157" d="M 318.5 419 L 314.5 424 L 318.5 419 Z " /><path fill="rgb(3,0,4)" stroke="rgb(3,0,4)" stroke-width="1" opacity="0.4627450980392157" d="M 241.5 420 L 243.5 423 L 241.5 420 Z " /><path fill="rgb(3,0,4)" stroke="rgb(3,0,4)" stroke-width="1" opacity="0.4627450980392157" d="M 130.5 422 L 128.5 425 L 130.5 422 Z " /><path fill="rgb(3,0,4)" stroke="rgb(3,0,4)" stroke-width="1" opacity="0.4627450980392157" d="M 53.5 423 L 55.5 426 L 53.5 423 Z " /><path fill="rgb(3,0,4)" stroke="rgb(3,0,4)" stroke-width="1" opacity="0.4627450980392157" d="M 247.5 425 L 249.5 428 L 247.5 425 Z " /><path fill="rgb(3,0,4)" stroke="rgb(3,0,4)" stroke-width="1" opacity="0.4627450980392157" d="M 310.5 426 L 309.5 428 L 310.5 426 Z " /><path fill="rgb(3,0,4)" stroke="rgb(3,0,4)" stroke-width="1" opacity="0.4627450980392157" d="M 57.5 427 L 59.5 430 L 57.5 427 Z " /><path fill="rgb(3,0,4)" stroke="rgb(3,0,4)" stroke-width="1" opacity="0.4627450980392157" d="M 124.5 428 L 123.5 430 L 124.5 428 Z " /><path fill="rgb(3,0,4)" stroke="rgb(3,0,4)" stroke-width="1" opacity="0.4627450980392157" d="M 272.5 436 L 276 436.5 L 272.5 437 L 272.5 436 Z " /><path fill="rgb(3,0,4)" stroke="rgb(3,0,4)" stroke-width="1" opacity="0.4627450980392157" d="M 283.5 436 L 287 436.5 L 283.5 437 L 283.5 436 Z " /><path fill="rgb(3,0,4)" stroke="rgb(3,0,4)" stroke-width="1" opacity="0.4627450980392157" d="M 99.5 440 L 102 440.5 L 99.5 441 L 99.5 440 Z " /></svg>